<svg xmlns="http://www.w3.org/2000/svg" viewBox="0 0 860 110" width="100%">
<rect width="860" height="110" fill="#0d1117" rx="12"/>
<circle cx="55" cy="59" r="7" fill="#f59e0b"><animate attributeName="opacity" values="1;1;0;0" keyTimes="0;0.1094;0.1174;1" dur="6.0s" repeatCount="indefinite"/></circle>
<circle cx="81" cy="59" r="3" fill="#4c1d95"><animate attributeName="opacity" values="1;1;0;0" keyTimes="0;0.1365;0.1445;1" dur="6.0s" repeatCount="indefinite"/></circle>
<circle cx="107" cy="59" r="3" fill="#4c1d95"><animate attributeName="opacity" values="1;1;0;0" keyTimes="0;0.1635;0.1715;1" dur="6.0s" repeatCount="indefinite"/></circle>
<circle cx="133" cy="59" r="3" fill="#4c1d95"><animate attributeName="opacity" values="1;1;0;0" keyTimes="0;0.1906;0.1986;1" dur="6.0s" repeatCount="indefinite"/></circle>
<circle cx="159" cy="59" r="3" fill="#4c1d95"><animate attributeName="opacity" values="1;1;0;0" keyTimes="0;0.2177;0.2257;1" dur="6.0s" repeatCount="indefinite"/></circle>
<circle cx="185" cy="59" r="3" fill="#4c1d95"><animate attributeName="opacity" values="1;1;0;0" keyTimes="0;0.2448;0.2528;1" dur="6.0s" repeatCount="indefinite"/></circle>
<circle cx="211" cy="59" r="3" fill="#4c1d95"><animate attributeName="opacity" values="1;1;0;0" keyTimes="0;0.2719;0.2799;1" dur="6.0s" repeatCount="indefinite"/></circle>
<circle cx="237" cy="59" r="3" fill="#4c1d95"><animate attributeName="opacity" values="1;1;0;0" keyTimes="0;0.2990;0.3070;1" dur="6.0s" repeatCount="indefinite"/></circle>
<circle cx="263" cy="59" r="3" fill="#4c1d95"><animate attributeName="opacity" values="1;1;0;0" keyTimes="0;0.3260;0.3340;1" dur="6.0s" repeatCount="indefinite"/></circle>
<circle cx="289" cy="59" r="7" fill="#f59e0b"><animate attributeName="opacity" values="1;1;0;0" keyTimes="0;0.3531;0.3611;1" dur="6.0s" repeatCount="indefinite"/></circle>
<circle cx="315" cy="59" r="3" fill="#4c1d95"><animate attributeName="opacity" values="1;1;0;0" keyTimes="0;0.3802;0.3882;1" dur="6.0s" repeatCount="indefinite"/></circle>
<circle cx="341" cy="59" r="3" fill="#4c1d95"><animate attributeName="opacity" values="1;1;0;0" keyTimes="0;0.4073;0.4153;1" dur="6.0s" repeatCount="indefinite"/></circle>
<circle cx="367" cy="59" r="3" fill="#4c1d95"><animate attributeName="opacity" values="1;1;0;0" keyTimes="0;0.4344;0.4424;1" dur="6.0s" repeatCount="indefinite"/></circle>
<circle cx="393" cy="59" r="3" fill="#4c1d95"><animate attributeName="opacity" values="1;1;0;0" keyTimes="0;0.4615;0.4695;1" dur="6.0s" repeatCount="indefinite"/></circle>
<circle cx="419" cy="59" r="3" fill="#4c1d95"><animate attributeName="opacity" values="1;1;0;0" keyTimes="0;0.4885;0.4965;1" dur="6.0s" repeatCount="indefinite"/></circle>
<circle cx="445" cy="59" r="3" fill="#4c1d95"><animate attributeName="opacity" values="1;1;0;0" keyTimes="0;0.5156;0.5236;1" dur="6.0s" repeatCount="indefinite"/></circle>
<circle cx="471" cy="59" r="3" fill="#4c1d95"><animate attributeName="opacity" values="1;1;0;0" keyTimes="0;0.5427;0.5507;1" dur="6.0s" repeatCount="indefinite"/></circle>
<circle cx="497" cy="59" r="3" fill="#4c1d95"><animate attributeName="opacity" values="1;1;0;0" keyTimes="0;0.5698;0.5778;1" dur="6.0s" repeatCount="indefinite"/></circle>
<circle cx="523" cy="59" r="7" fill="#f59e0b"><animate attributeName="opacity" values="1;1;0;0" keyTimes="0;0.5969;0.6049;1" dur="6.0s" repeatCount="indefinite"/></circle>
<circle cx="549" cy="59" r="3" fill="#4c1d95"><animate attributeName="opacity" values="1;1;0;0" keyTimes="0;0.6240;0.6320;1" dur="6.0s" repeatCount="indefinite"/></circle>
<circle cx="575" cy="59" r="3" fill="#4c1d95"><animate attributeName="opacity" values="1;1;0;0" keyTimes="0;0.6510;0.6590;1" dur="6.0s" repeatCount="indefinite"/></circle>
<circle cx="601" cy="59" r="3" fill="#4c1d95"><animate attributeName="opacity" values="1;1;0;0" keyTimes="0;0.6781;0.6861;1" dur="6.0s" repeatCount="indefinite"/></circle>
<circle cx="627" cy="59" r="3" fill="#4c1d95"><animate attributeName="opacity" values="1;1;0;0" keyTimes="0;0.7052;0.7132;1" dur="6.0s" repeatCount="indefinite"/></circle>
<circle cx="653" cy="59" r="3" fill="#4c1d95"><animate attributeName="opacity" values="1;1;0;0" keyTimes="0;0.7323;0.7403;1" dur="6.0s" repeatCount="indefinite"/></circle>
<circle cx="679" cy="59" r="3" fill="#4c1d95"><animate attributeName="opacity" values="1;1;0;0" keyTimes="0;0.7594;0.7674;1" dur="6.0s" repeatCount="indefinite"/></circle>
<circle cx="705" cy="59" r="3" fill="#4c1d95"><animate attributeName="opacity" values="1;1;0;0" keyTimes="0;0.7865;0.7945;1" dur="6.0s" repeatCount="indefinite"/></circle>
<circle cx="731" cy="59" r="3" fill="#4c1d95"><animate attributeName="opacity" values="1;1;0;0" keyTimes="0;0.8135;0.8215;1" dur="6.0s" repeatCount="indefinite"/></circle>
<circle cx="757" cy="59" r="7" fill="#f59e0b"><animate attributeName="opacity" values="1;1;0;0" keyTimes="0;0.8406;0.8486;1" dur="6.0s" repeatCount="indefinite"/></circle>
<circle cx="783" cy="59" r="3" fill="#4c1d95"><animate attributeName="opacity" values="1;1;0;0" keyTimes="0;0.8677;0.8757;1" dur="6.0s" repeatCount="indefinite"/></circle>
<circle cx="809" cy="59" r="3" fill="#4c1d95"><animate attributeName="opacity" values="1;1;0;0" keyTimes="0;0.8948;0.9028;1" dur="6.0s" repeatCount="indefinite"/></circle>
<circle cx="835" cy="59" r="3" fill="#4c1d95"><animate attributeName="opacity" values="1;1;0;0" keyTimes="0;0.9219;0.9299;1" dur="6.0s" repeatCount="indefinite"/></circle>
<g opacity="0.85"><animateTransform attributeName="transform" type="translate" from="619.1999999999999,59" to="-340.80000000000007,59" dur="5.0s" begin="0.0s" repeatCount="indefinite"/><path d="M0,-14 A14,14 0 0,1 14,0 L14,14 L9,4 L4,14 L0,4 L-4,14 L-9,4 L-14,14 L-14,0 A14,14 0 0,1 0,-14 Z" fill="#ff6b6b"/><circle cx="-5" cy="-5" r="3" fill="white"/><circle cx="4"  cy="-5" r="3" fill="white"/><circle cx="-4" cy="-4" r="1.5" fill="#1e40af"/><circle cx="5"  cy="-4" r="1.5" fill="#1e40af"/></g>
<g opacity="0.85"><animateTransform attributeName="transform" type="translate" from="756.8,59" to="-203.20000000000005,59" dur="5.5s" begin="0.4s" repeatCount="indefinite"/><path d="M0,-14 A14,14 0 0,1 14,0 L14,14 L9,4 L4,14 L0,4 L-4,14 L-9,4 L-14,14 L-14,0 A14,14 0 0,1 0,-14 Z" fill="#74b9ff"/><circle cx="-5" cy="-5" r="3" fill="white"/><circle cx="4"  cy="-5" r="3" fill="white"/><circle cx="-4" cy="-4" r="1.5" fill="#1e40af"/><circle cx="5"  cy="-4" r="1.5" fill="#1e40af"/></g>
<g>
<animateTransform attributeName="transform" type="translate" from="-50,59" to="910,59" dur="6.0s" repeatCount="indefinite"/>
<circle cx="0" cy="0" r="16" fill="#FFD700"/>
<g>
<animateTransform attributeName="transform" type="rotate" values="0;-30;0" dur="0.22s" repeatCount="indefinite"/>
<polygon points="0,0 19,-6 19,0" fill="#0d1117"/>
</g>
<g>
<animateTransform attributeName="transform" type="rotate" values="0;30;0" dur="0.22s" repeatCount="indefinite"/>
<polygon points="0,0 19,0 19,6" fill="#0d1117"/>
</g>
<circle cx="-4" cy="-8" r="2.5" fill="#0d1117"/>
</g>
<text x="12" y="18" fill="#4c1d95" font-size="11" font-family="monospace" opacity="0.7">SCORE: ∞</text>
<text x="848" y="18" fill="#4c1d95" font-size="11" font-family="monospace" text-anchor="end" opacity="0.7">LIVES: ❤️❤️❤️</text>
</svg>